<svg width="18" height="18" viewBox="0 0 18 18" fill="none" xmlns="http://www.w3.org/2000/svg">
<g clip-path="url(#clip0_1_641)">
<path d="M3.87635 17.5165C1.77111 17.5165 0.055043 15.8726 0.0507891 13.8518C0.0487149 12.8815 0.457881 11.9317 1.17333 11.2458L4.75475 7.80082C4.90428 7.65763 5.10385 7.57865 5.31628 7.57865C5.52884 7.57865 5.7285 7.65773 5.87859 7.80126L7.46116 9.32333L13.8912 3.13727L12.429 1.73067C12.2974 1.57971 12.2333 1.38921 12.2485 1.19336C12.264 0.992826 12.3605 0.809873 12.5203 0.678248C12.667 0.558721 12.8506 0.493688 13.0398 0.494205C13.2277 0.494205 13.4094 0.557767 13.5525 0.67322L17.5926 4.55983C17.6635 4.62897 17.7197 4.71181 17.7576 4.8033C17.7956 4.8948 17.8145 4.99305 17.8133 5.0921C17.8109 5.29242 17.7268 5.4804 17.5769 5.62109C17.4309 5.75817 17.2378 5.83539 17.033 5.83866C16.8183 5.83866 16.6186 5.7598 16.4684 5.61661L15.0032 4.20649L8.57233 10.3926L10.1675 11.9272C10.314 12.0686 10.3948 12.2565 10.3948 12.4557C10.3948 12.655 10.314 12.8428 10.1671 12.9846L6.58595 16.4291C5.86602 17.1264 4.90657 17.5124 3.88377 17.5166H3.87635V17.5165ZM2.29704 12.3131C1.8716 12.721 1.63665 13.2648 1.63567 13.8439C1.63468 14.4232 1.86787 14.9678 2.29235 15.3775L2.30163 15.3865C2.73024 15.7761 3.29079 15.9907 3.87995 15.9907C4.46912 15.9907 5.02956 15.7761 5.45829 15.3865L8.48954 12.4706L5.31138 9.4131L2.29704 12.3131ZM10.9664 17.5165C10.7471 17.5165 10.5432 17.4331 10.3919 17.2817C10.2511 17.1407 10.1737 16.9561 10.174 16.7618C10.1746 16.3463 10.5302 16.0078 10.9667 16.0072H17.0366C17.2497 16.0076 17.4498 16.0872 17.5997 16.2318C17.7473 16.3741 17.8284 16.5627 17.8281 16.7627C17.8281 17.1786 17.473 17.5165 17.0366 17.5165H10.9664ZM14.0014 13.624C13.7822 13.624 13.5783 13.5407 13.4272 13.3896C13.2863 13.2485 13.2089 13.0636 13.2092 12.8686C13.2092 12.4533 13.5647 12.1153 14.0018 12.1147H17.0366C17.2499 12.1151 17.4499 12.1946 17.5998 12.339C17.7473 12.4812 17.8284 12.6695 17.8281 12.8695C17.8281 13.2857 17.473 13.624 17.0366 13.624L14.0014 13.624Z" fill="#9D8FFE"/>
</g>
<defs>
<clipPath id="clip0_1_641">
<rect width="18" height="18" fill="white"/>
</clipPath>
</defs>
</svg>
