<svg width="24" height="24" viewBox="0 0 24 24" fill="none" xmlns="http://www.w3.org/2000/svg">
<path d="M14.2828 16.0594C13.9476 15.2672 13.4695 14.557 12.8578 13.9453C12.2461 13.3359 11.5359 12.8555 10.7437 12.5203C10.5398 12.4336 10.3336 12.3586 10.125 12.293C11.0437 11.6742 11.6578 10.6312 11.6836 9.45234C11.7281 7.44844 10.0898 5.81015 8.08593 5.85469C6.21093 5.89687 4.68749 7.42031 4.6453 9.29531C4.61718 10.5398 5.24061 11.6437 6.19686 12.2906C5.98358 12.3562 5.77264 12.4336 5.56639 12.5203C4.77421 12.8555 4.06405 13.3336 3.45233 13.9453C2.84061 14.557 2.36249 15.2672 2.02733 16.0594C1.74374 16.732 1.57264 17.4375 1.52108 18.1664C1.50233 18.4266 1.70858 18.6492 1.96874 18.6492C2.20311 18.6492 2.39999 18.4687 2.41639 18.2344C2.62968 15.2555 5.12108 12.8977 8.15389 12.8977C11.1867 12.8977 13.6781 15.2555 13.8914 18.2344C13.9078 18.4687 14.1047 18.6492 14.3391 18.6492C14.5992 18.6492 14.8055 18.4266 14.7867 18.1664C14.7351 17.4375 14.5664 16.732 14.2828 16.0594ZM5.54296 9.46172C5.49374 7.94765 6.73593 6.70312 8.24999 6.75469C9.62343 6.79922 10.7391 7.91484 10.7836 9.28828C10.8328 10.8023 9.59061 12.0445 8.07655 11.9953C6.70311 11.9508 5.58749 10.8352 5.54296 9.46172ZM22.4601 18.068C22.3992 17.3039 22.2187 16.5586 21.9187 15.8508C21.5555 14.9953 21.0375 14.2266 20.3789 13.5656C19.9219 13.1086 19.4133 12.7219 18.8601 12.4055C18.5883 12.2508 18.5016 11.8969 18.6773 11.6367C19.125 10.9734 19.364 10.1953 19.364 9.37734C19.364 7.35 17.8711 5.66484 15.9258 5.36484C15.6 5.31562 15.3047 5.56875 15.3047 5.89687C15.3047 6.16406 15.5015 6.38906 15.764 6.4289C17.189 6.65156 18.2836 7.88672 18.2836 9.375C18.2836 10.1836 17.9625 10.943 17.3812 11.5102C17.1586 11.7258 17.0601 12.0375 17.1187 12.3398C17.175 12.6422 17.3812 12.8953 17.6648 13.0148L17.6742 13.0195C18.4008 13.3266 19.0547 13.7672 19.6172 14.3297C20.1773 14.8898 20.618 15.5437 20.9273 16.2727C21.1805 16.8727 21.3351 17.5031 21.3867 18.1523C21.4101 18.4336 21.6422 18.6516 21.9234 18.6516C22.2375 18.6469 22.4859 18.3797 22.4601 18.068Z" fill="#2DD8FF"/>
<path d="M17.8289 15.8648C17.4656 15.0094 16.9477 14.2406 16.2891 13.5797C15.832 13.1227 15.3234 12.7359 14.7703 12.4195C14.4984 12.2648 14.4117 11.9109 14.5875 11.6508C15.0352 10.9875 15.2742 10.2094 15.2742 9.39141C15.2742 7.36407 13.7812 5.67891 11.8359 5.37891C11.5102 5.32969 11.2148 5.58282 11.2148 5.91094C11.2148 6.17813 11.4117 6.40313 11.6742 6.44297C13.0992 6.66563 14.1937 7.90079 14.1937 9.38907C14.1937 10.1977 13.8727 10.957 13.2914 11.5242C13.0687 11.7398 12.9703 12.0516 13.0289 12.3539C13.0852 12.6563 13.2914 12.9094 13.575 13.0289L13.5844 13.0336C14.3109 13.3406 14.9648 13.7813 15.5273 14.3438C16.0875 14.9039 16.5281 15.5578 16.8375 16.2867C17.0906 16.8867 17.2453 17.5172 17.2969 18.1664C17.3203 18.4477 17.5523 18.6656 17.8336 18.6656C18.1477 18.6656 18.3961 18.3984 18.3703 18.0844C18.3094 17.318 18.1289 16.575 17.8289 15.8648Z" fill="#2DD8FF"/>
</svg>
