<svg width="24" height="24" viewBox="0 0 24 24" fill="none" xmlns="http://www.w3.org/2000/svg">
<path d="M12 19.6191C10.9715 19.6191 9.97359 19.418 9.03497 19.0212C8.1298 18.6382 7.30728 18.0838 6.61274 17.3884C5.90356 16.682 5.34124 15.8421 4.9582 14.9173C4.57517 13.9925 4.37899 13.001 4.381 12C4.37902 10.9992 4.57521 10.0079 4.95824 9.08325C5.34128 8.15861 5.90359 7.31896 6.61274 6.61273C7.31896 5.90363 8.15863 5.34142 9.08328 4.95855C10.0079 4.57569 10.9993 4.37975 12 4.38204C13.0008 4.38088 13.992 4.57734 14.9166 4.96014C15.8413 5.34293 16.6813 5.90454 17.3884 6.61273C18.0974 7.31905 18.6595 8.15874 19.0423 9.08337C19.4252 10.008 19.6212 10.9993 19.6191 12C19.6215 13.001 19.4257 13.9925 19.0428 14.9174C18.6599 15.8422 18.0976 16.682 17.3884 17.3884C16.6821 18.0976 15.8422 18.6599 14.9174 19.0428C13.9925 19.4256 13.001 19.6215 12 19.6191ZM12 5.55347C10.291 5.55543 8.65255 6.23528 7.44418 7.44385C6.23581 8.65242 5.55622 10.291 5.55454 12C5.55622 13.7091 6.23581 15.3476 7.44418 16.5562C8.65255 17.7648 10.291 18.4446 12 18.4466C13.7093 18.4449 15.348 17.7652 16.5566 16.5566C17.7652 15.348 18.4449 13.7092 18.4466 12C18.4444 10.291 17.7645 8.65258 16.556 7.4441C15.3475 6.23562 13.7091 5.55571 12 5.55347ZM12 17.1577C11.845 17.1569 11.6965 17.095 11.5868 16.9854C11.4771 16.8759 11.4149 16.7276 11.4138 16.5725V15.6963L11.3249 15.6741C10.9967 15.597 10.6837 15.4654 10.399 15.2847C10.177 15.1517 9.97554 14.987 9.8011 14.7958C9.69895 14.6785 9.64757 14.5254 9.65829 14.3702C9.66901 14.215 9.74093 14.0704 9.85824 13.9683C9.97556 13.8661 10.1286 13.8148 10.2838 13.8255C10.439 13.8362 10.5836 13.9081 10.6858 14.0254C10.7344 14.0815 10.853 14.1852 11.0212 14.291C11.3281 14.4826 11.6561 14.5789 11.9979 14.5789C12.4053 14.5789 12.7778 14.4339 12.9948 14.1926C13.0557 14.1306 13.1028 14.0564 13.1329 13.9749C13.163 13.8933 13.1754 13.8063 13.1694 13.7196C13.1291 13.3524 12.8191 13.0868 11.8434 12.5799L11.618 12.4646C10.8678 12.0752 10.4477 11.8011 10.1683 11.5175C9.86671 11.2117 9.71645 10.8805 9.66565 10.4106C9.64025 10.1782 9.66242 9.94301 9.73082 9.71942C9.79923 9.49583 9.91243 9.28851 10.0635 9.11008C10.3662 8.73759 10.8149 8.4614 11.326 8.3323L11.4127 8.31008V7.42966C11.4217 7.27999 11.4875 7.1394 11.5967 7.03661C11.7058 6.93381 11.8501 6.87657 12 6.87657C12.15 6.87657 12.2943 6.93381 12.4034 7.03661C12.5126 7.1394 12.5784 7.27999 12.5873 7.42966V8.30585L12.6762 8.32701C13.0064 8.40532 13.3164 8.53654 13.6022 8.71643C13.9291 8.92066 14.1164 9.11008 14.2 9.20532C14.2987 9.32296 14.3473 9.47461 14.3353 9.62767C14.3233 9.78073 14.2518 9.92299 14.1361 10.0239C14.0204 10.1248 13.8697 10.1762 13.7164 10.1672C13.5632 10.1582 13.4195 10.0894 13.3164 9.97569C13.2164 9.87277 13.1033 9.78346 12.9799 9.71008C12.6887 9.52231 12.3497 9.42204 12.0032 9.42119C11.5969 9.42119 11.2233 9.56617 11.0064 9.80849C10.9455 9.87054 10.8984 9.94475 10.8681 10.0263C10.8378 10.1078 10.8251 10.1947 10.8307 10.2815C10.8709 10.6476 11.181 10.9143 12.1577 11.4201L12.3821 11.5355C13.1323 11.9249 13.5514 12.2 13.8318 12.4836C14.1323 12.7894 14.2836 13.1207 14.3355 13.5894C14.3863 14.0561 14.2487 14.5058 13.9366 14.89C13.61 15.2771 13.1679 15.5493 12.6752 15.6667L12.5873 15.6889V16.5704C12.5875 16.6476 12.5724 16.724 12.5429 16.7953C12.5135 16.8666 12.4702 16.9314 12.4156 16.986C12.3611 17.0406 12.2963 17.0838 12.225 17.1133C12.1536 17.1427 12.0772 17.1578 12 17.1577Z" fill="#FF953F"/>
</svg>
